<svg width="376" height="375" xmlns="http://www.w3.org/2000/svg" xmlns:xlink="http://www.w3.org/1999/xlink" overflow="hidden"><defs><clipPath id="clip0"><rect x="118" y="80" width="376" height="375"/></clipPath><clipPath id="clip1"><rect x="258" y="220" width="96" height="96"/></clipPath><clipPath id="clip2"><rect x="258" y="220" width="96" height="96"/></clipPath><clipPath id="clip3"><rect x="258" y="220" width="96" height="96"/></clipPath></defs><g clip-path="url(#clip0)" transform="translate(-118 -80)"><path d="M493 333C493 348.464 480.464 361 465 361 449.536 361 437 348.464 437 333 437 317.536 449.536 305 465 305 480.464 305 493 317.536 493 333Z" fill="#33364D" fill-rule="evenodd"/><path d="M477 333C477 339.627 471.627 345 465 345 458.373 345 453 339.627 453 333 453 326.373 458.373 321 465 321 471.627 321 477 326.373 477 333Z" fill="#FFFFFF" fill-rule="evenodd"/><path d="M447 342.333C447 344.911 444.911 347 442.333 347L282.667 347C280.089 347 278 344.911 278 342.333L278 323.667C278 321.089 280.089 319 282.667 319L442.333 319C444.911 319 447 321.089 447 323.667Z" fill="#33364D" fill-rule="evenodd"/><path d="M301.333 324C303.911 324 306 326.089 306 328.667L306 403.333C306 405.911 303.911 408 301.333 408L282.667 408C280.089 408 278 405.911 278 403.333L278 328.667C278 326.089 280.089 324 282.667 324Z" fill="#33364D" fill-rule="evenodd"/><path d="M416 379.5C416 381.985 413.985 384 411.5 384L318.5 384C316.015 384 314 381.985 314 379.5L314 361.5C314 359.015 316.015 357 318.5 357L411.5 357C413.985 357 416 359.015 416 361.5Z" fill="#109E92" fill-rule="evenodd"/><path d="M371 81.0001C386.464 81.0001 399 93.3122 399 108.5 399 123.688 386.464 136 371 136 355.536 136 343 123.688 343 108.5 343 93.3122 355.536 81.0001 371 81.0001Z" fill="#109E92" fill-rule="evenodd"/><path d="M371 95.9999C377.627 95.9999 383 101.596 383 108.5 383 115.404 377.627 121 371 121 364.373 121 359 115.404 359 108.5 359 101.596 364.373 95.9999 371 95.9999Z" fill="#FFFFFF" fill-rule="evenodd"/><path d="M380.333 126C382.911 126 385 128.089 385 130.667L385 290.333C385 292.911 382.911 295 380.333 295L361.667 295C359.089 295 357 292.911 357 290.333L357 130.667C357 128.089 359.089 126 361.667 126Z" fill="#109E92" fill-rule="evenodd"/><path d="M361 271.667C361 269.089 363.089 267 365.667 267L441.333 267C443.911 267 446 269.089 446 271.667L446 290.333C446 292.911 443.911 295 441.333 295L365.667 295C363.089 295 361 292.911 361 290.333Z" fill="#109E92" fill-rule="evenodd"/><path d="M417.333 157C419.911 157 422 159.089 422 161.667L422 254.333C422 256.911 419.911 259 417.333 259L398.667 259C396.089 259 394 256.911 394 254.333L394 161.667C394 159.089 396.089 157 398.667 157Z" fill="#33364D" fill-rule="evenodd"/><path d="M241.5 455C226.312 455 214 442.464 214 427 214 411.536 226.312 399 241.5 399 256.688 399 269 411.536 269 427 269 442.464 256.688 455 241.5 455Z" fill="#109E92" fill-rule="evenodd"/><path d="M242 439C235.373 439 230 433.627 230 427 230 420.373 235.373 415 242 415 248.627 415 254 420.373 254 427 254 433.627 248.627 439 242 439Z" fill="#FFFFFF" fill-rule="evenodd"/><path d="M232.667 409C230.089 409 228 406.911 228 404.333L228 244.667C228 242.089 230.089 240 232.667 240L251.333 240C253.911 240 256 242.089 256 244.667L256 404.333C256 406.911 253.911 409 251.333 409Z" fill="#109E92" fill-rule="evenodd"/><path d="M251 263.333C251 265.911 248.911 268 246.333 268L171.667 268C169.089 268 167 265.911 167 263.333L167 244.667C167 242.089 169.089 240 171.667 240L246.333 240C248.911 240 251 242.089 251 244.667Z" fill="#109E92" fill-rule="evenodd"/><path d="M195.5 378C193.015 378 191 375.985 191 373.5L191 280.5C191 278.015 193.015 276 195.5 276L213.5 276C215.985 276 218 278.015 218 280.5L218 373.5C218 375.985 215.985 378 213.5 378Z" fill="#33364D" fill-rule="evenodd"/><path d="M119 203.5C119 188.312 131.312 176 146.5 176 161.688 176 174 188.312 174 203.5 174 218.688 161.688 231 146.5 231 131.312 231 119 218.688 119 203.5Z" fill="#33364D" fill-rule="evenodd"/><path d="M134 203.5C134 196.596 139.596 191 146.5 191 153.404 191 159 196.596 159 203.5 159 210.404 153.404 216 146.5 216 139.596 216 134 210.404 134 203.5Z" fill="#FFFFFF" fill-rule="evenodd"/><path d="M165 194.5C165 192.015 167.015 190 169.5 190L328.5 190C330.985 190 333 192.015 333 194.5L333 212.5C333 214.985 330.985 217 328.5 217L169.5 217C167.015 217 165 214.985 165 212.5Z" fill="#33364D" fill-rule="evenodd"/><path d="M310.5 213C308.015 213 306 210.985 306 208.5L306 133.5C306 131.015 308.015 129 310.5 129L328.5 129C330.985 129 333 131.015 333 133.5L333 208.5C333 210.985 330.985 213 328.5 213Z" fill="#33364D" fill-rule="evenodd"/><path d="M196 156.667C196 154.089 198.089 152 200.667 152L292.333 152C294.911 152 297 154.089 297 156.667L297 175.333C297 177.911 294.911 180 292.333 180L200.667 180C198.089 180 196 177.911 196 175.333Z" fill="#109E92" fill-rule="evenodd"/><g clip-path="url(#clip1)"><g clip-path="url(#clip2)"><g clip-path="url(#clip3)"><path d="M339.8 252.8C338.6 248.8 336 245.4 332.4 243.3 332.4 243 332.4 242.7 332.4 242.4 332.5 235.6 326.9 230 320 230 317.9 230 316 230.5 314.3 231.4 312 228.1 308.3 226 304 226 298.5 226 293.8 229.6 292.1 234.6 290.3 233.6 288.2 233 286 233 279.1 233 273.5 238.6 273.5 245.5 273.5 248.1 274.3 250.5 275.7 252.5 269.2 254.2 264.5 260 264.5 267 264.5 275.3 271.2 282 279.5 282 280.7 282 281.9 281.8 283.1 281.6 287.9 283.8 298.5 290.2 299 297.5L298.6 307C298.6 307.5 298.4 308 298 308.4L297.1 309.3C296.5 310 296.9 311 297.8 311L308.8 311C309.6 311 310 310.2 309.7 309.5 309.7 309.5 309.2 308.5 308.9 308.2 308.6 307.8 308.3 307.4 308.3 306.8L307.9 294.7C307.9 294.6 308 294.5 308 294.5 308.8 290.9 313.6 288.5 318.7 286 323.8 283.5 329.8 280.5 331.7 275.3 332.9 275.7 334.2 276 335.6 276 342.2 276 347.6 270.6 347.6 264 347.5 258.9 344.3 254.5 339.8 252.8ZM303.8 283.3C303.5 280.8 302.9 277.8 301.7 274.9 304.2 274.6 306.5 273.8 308.5 272.6 306.4 276.2 304.8 280.1 303.8 283.3ZM288.7 278.8C290.5 277.4 292 275.5 293.1 273.4 294 273.8 294.9 274.2 295.9 274.4 298.5 278.7 299 283.6 299 286.7 295.8 283.3 291.7 280.6 288.7 278.8ZM316.4 281.5C313.5 282.9 310.5 284.4 308.1 286.2 309.4 282.1 311.7 275.9 315.3 271.4 317.8 273 320.8 273.9 324 273.9 325 273.9 325.9 273.8 326.8 273.6 325.7 276.7 321.8 278.8 316.4 281.5Z" fill="#92D050"/></g></g></g></g></svg>